<svg xmlns="http://www.w3.org/2000/svg" viewBox="0 0 140.25 139.5"><defs><style>.cls-1{fill:#ab003c;stroke:#eceef1;stroke-miterlimit:10;stroke-width:6.75px;}.cls-2,.cls-3{fill:#eceef1;}.cls-3{stroke:#fff;stroke-linecap:round;stroke-linejoin:round;stroke-width:0;}</style></defs><g id="Layer_2" data-name="Layer 2"><g id="Layer_1-2" data-name="Layer 1"><path class="cls-1" d="M136.87,70.12c0,36.75-30,66-66.75,66s-66.75-29.25-66.75-66a66.75,66.75,0,0,1,133.5,0Z"/><path class="cls-2" d="M107.62,43.87c0-2.25-1.5-5.25-3-5.25-1.5-.75-3.75.75-5.25,2.25-6,6-12.75,12-18.75,18.75-3,3-6.75,6-11.25,10.5-9-9.75-17.25-18.75-26.25-27.75-2.25-2.25-5.25-3-7.5-4.5-.75,3-2.25,6-2.25,9-.75,15,0,30,0,45,0,13.5.75,14.25,13.5,12.75.75,0,.75.75.75,0a15.69,15.69,0,0,0,4.5-3c-1.5-.75-3-3-4.5-3-2.25-.75-4.5-.75-7.5-.75v-48a28.55,28.55,0,0,1,4.5,3.75,277.38,277.38,0,0,1,21,21c3.75,3.75,5.25,3.75,9.75,0,6.75-7.5,14.25-14.25,21-21.75.75-.75,2.25-1.5,3.75-3V98.62c-2.25,0-5.25-.75-7.5,0-.75,0-2.25,1.5-3,3,.75.75,2.25,3,3,3,3,.75,6,0,9,0,3.75.75,6-1.5,6-5.25V43.87Z"/><path class="cls-3" d="M69.37,70.12c-9-9.75-17.25-18.75-26.25-27.75-2.25-2.25-5.25-3-7.5-4.5-.75,3-2.25,6-2.25,9-.75,15,0,30,0,45,0,13.5.75,14.25,13.5,12.75.75,0,.75.75.75,0a15.69,15.69,0,0,0,4.5-3c-1.5-.75-3-3-4.5-3-2.25-.75-4.5-.75-7.5-.75v-48a28.55,28.55,0,0,1,4.5,3.75,277.38,277.38,0,0,1,21,21c3.75,3.75,5.25,3.75,9.75,0,6.75-7.5,14.25-14.25,21-21.75.75-.75,2.25-1.5,3.75-3V98.62c-2.25,0-5.25-.75-7.5,0-.75,0-2.25,1.5-3,3,.75.75,2.25,3,3,3,3,.75,6,0,9,0,3.75.75,6-1.5,6-5.25V43.87c0-2.25-1.5-5.25-3-5.25-1.5-.75-3.75.75-5.25,2.25-6,6-12.75,12-18.75,18.75-3,3-6.75,6-11.25,10.5Z"/></g></g></svg>